#!OML:ASF H:\Terrain\Patient Classification 1\PLAYGROUND\JustinFriday\JustinFriday.ASF
:FULLY-SPECIFIED
:DEGREES
3467
root 18.1969 19.6226 51.419 175.044 -22.2785 -171.83
lowerback 35.4287 13.1416 -5.42319
upperback 5.75608 14.364 6.97431
thorax -14.1805 6.04132 4.04593
lowerneck -11.2821 -12.2155 10.4185
upperneck -13.7666 -17.8803 6.34258
head -2.96838 -9.94492 0.335776
rclavicle 1.59028e-013 -2.62396e-014
rhumerus 43.7108 -30.8978 -68.6687
rradius 65.4014
rwrist -168.294
rhand -44.9217 29.6087
rfingers 7.12502
rthumb -17.7084 360.395
lclavicle 1.59028e-013 -2.62396e-014
lhumerus 62.5202 -34.5982 64.0588
lradius 67.292
lwrist -5.4166
lhand -34.3814 -18.9822
lfingers 7.12502
lthumb -7.54771 10.8632
rfemur 10.4345 26.3558 28.3541
rtibia 16.5695
rfoot -31.9191 36.2282
rtoes -38.0475
lfemur -50.9893 15.8524 -10.7832
ltibia 74.5335
lfoot -209.669 159.443
ltoes 4.86398
3468
root 18.1018 19.6737 51.4299 175.382 -21.8018 -171.905
lowerback 35.3379 13.3215 -5.75905
upperback 5.6381 14.5105 6.93787
thorax -14.3641 6.13221 4.09252
lowerneck -11.1266 -12.3136 10.4704
upperneck -14.2937 -18.014 6.41789
head -3.18293 -10.0612 0.400629
rclavicle -4.85035e-014 4.21423e-014
rhumerus 42.4314 -30.9366 -67.4844
rradius 65.478
rwrist -169.385
rhand -44.54 29.5976
rfingers 7.12502
rthumb -17.341 360.351
lclavicle -4.85035e-014 4.21423e-014
lhumerus 63.47 -34.9389 63.8479
lradius 66.8462
lwrist -5.61503
lhand -34.4315 -19.2955
lfingers 7.12502
lthumb -7.59607 10.5481
rfemur 9.49738 25.8369 27.6926
rtibia 17.4969
rfoot -30.9618 35.4062
rtoes -41.4486
lfemur -50.5908 15.8751 -11.1409
ltibia 73.8386
lfoot -209.929 159.844
ltoes 3.55256
3469
root 18.0053 19.7392 51.4353 175.989 -21.0632 -171.849
lowerback 34.692 13.52 -6.10346
upperback 5.52683 14.7434 6.89518
thorax -14.3477 6.28961 4.1571
lowerneck -10.712 -12.4332 10.557
upperneck -14.9915 -18.1413 6.50067
head -3.50888 -10.1876 0.498124
rclavicle 1.98785e-014 -8.11041e-014
rhumerus 41.2179 -30.9966 -66.6137
rradius 65.827
rwrist -170.116
rhand -44.4715 29.797
rfingers 7.12502
rthumb -17.275 360.545
lclavicle 1.98785e-014 -8.11041e-014
lhumerus 64.3375 -35.2681 63.6511
lradius 66.4193
lwrist -5.69922
lhand -34.291 -19.3732
lfingers 7.12502
lthumb -7.46043 10.4753
rfemur 8.08706 25.4782 27.0349
rtibia 18.6235
rfoot -29.9745 35.0385
rtoes -39.573
lfemur -50.4666 16.1427 -11.346
ltibia 73.1716
lfoot -210.2 160.122
ltoes 4.07484
3470
root 17.912 19.8073 51.4487 176.224 -20.6685 -171.733
lowerback 34.805 13.6321 -6.15263
upperback 5.47107 14.8675 6.89359
thorax -14.4824 6.34114 4.09764
lowerneck -11.2578 -12.4814 10.6554
upperneck -15.1702 -18.3434 6.39583
head -3.50868 -10.3164 0.426433
rclavicle -8.66701e-014 1.10524e-013
rhumerus 40.9412 -31.3556 -66.8546
rradius 66.2646
rwrist -170.06
rhand -44.6571 29.8527
rfingers 7.12502
rthumb -17.4537 360.616
lclavicle -8.66701e-014 1.10524e-013
lhumerus 65.5646 -35.4746 63.4064
lradius 65.863
lwrist -5.69976
lhand -34.06 -19.0165
lfingers 7.12502
lthumb -7.23746 10.8397
rfemur 7.10104 24.8384 26.6231
rtibia 19.6796
rfoot -28.6803 34.7182
rtoes -39.3926
lfemur -50.0561 15.914 -11.4348
ltibia 72.4704
lfoot -210.042 160.383
ltoes 4.75163
3471
root 17.8239 19.8689 51.4634 176.518 -20.2133 -171.402
lowerback 34.83 13.7349 -6.0925
upperback 5.36805 15.0467 6.92327
thorax -14.635 6.41999 3.99684
lowerneck -12.0657 -12.5055 10.5794
upperneck -15.0945 -18.5322 6.31156
head -3.35101 -10.4132 0.34266
rclavicle 1.52667e-013 2.06736e-014
rhumerus 39.8882 -31.3763 -65.9009
rradius 66.4991
rwrist -170.879
rhand -44.2546 30.0015
rfingers 7.12502
rthumb -17.0662 360.731
lclavicle 1.52667e-013 2.06736e-014
lhumerus 66.7433 -35.6794 63.2448
lradius 65.2498
lwrist -5.85918
lhand -33.7977 -18.5313
lfingers 7.12502
lthumb -6.98429 11.3335
rfemur 5.94888 24.2837 26.4423
rtibia 20.7319
rfoot -26.5566 34.1388
rtoes -39.7073
lfemur -49.8615 15.8558 -11.3075
ltibia 71.8072
lfoot -210.094 160.601
ltoes 5.07958
3472
root 17.7355 19.9306 51.4762 176.856 -19.726 -170.933
lowerback 34.724 13.7914 -5.9047
upperback 5.20487 15.2429 6.94476
thorax -14.7813 6.5116 3.82846
lowerneck -12.3724 -12.4627 10.4452
upperneck -15.3309 -18.5506 6.25736
head -3.37679 -10.4451 0.33511
rclavicle 8.82604e-014 4.6118e-014
rhumerus 39.4694 -31.6438 -65.9324
rradius 66.6809
rwrist -171.013
rhand -44.0715 31.0272
rfingers 7.12502
rthumb -16.89 361.742
lclavicle 8.82604e-014 4.6118e-014
lhumerus 67.7469 -35.9391 63.0551
lradius 64.6416
lwrist -5.88711
lhand -33.7138 -18.1245
lfingers 7.12502
lthumb -6.90329 11.743
rfemur 4.68743 23.7034 26.3839
rtibia 21.8065
rfoot -24.0395 33.324
rtoes -40.1814
lfemur -49.7869 15.9171 -11.0757
ltibia 71.1598
lfoot -210.376 160.795
ltoes 6.66703
3473
root 17.6432 19.9968 51.4861 177.384 -19.148 -170.644
lowerback 34.3117 13.8651 -5.83894
upperback 5.10608 15.4249 6.89453
thorax -14.7358 6.61334 3.69443
lowerneck -12.4483 -12.4735 10.9115
upperneck -16.2379 -18.729 6.01383
head -3.78291 -10.6399 0.266175
rclavicle -1.63799e-013 8.0309e-014
rhumerus 39.6012 -32.0708 -66.5452
rradius 66.8101
rwrist -170.944
rhand -43.892 31.5336
rfingers 7.12502
rthumb -16.7172 362.233
lclavicle -1.63799e-013 8.0309e-014
lhumerus 68.7776 -36.1797 62.9521
lradius 63.8742
lwrist -5.80361
lhand -33.2921 -17.5962
lfingers 7.12502
lthumb -6.49616 12.2841
rfemur 3.21411 23.09 26.0711
rtibia 23.0426
rfoot -21.3815 32.3471
rtoes -40.6992
lfemur -49.8252 16.0242 -11.0514
ltibia 70.5221
lfoot -210.497 161.086
ltoes 7.7624
3474
root 17.5515 20.0734 51.4938 178.003 -18.5154 -170.622
lowerback 33.7366 13.9835 -6.00188
upperback 5.06201 15.5815 6.79094
thorax -14.5915 6.71961 3.65274
lowerneck -12.3655 -12.4372 10.675
upperneck -16.7112 -18.6713 6.22204
head -3.91918 -10.6515 0.399059
rclavicle 1.61413e-013 -1.98785e-014
rhumerus 38.9461 -32.2128 -66.2295
rradius 67.048
rwrist -171.45
rhand -43.9444 30.6415
rfingers 7.12502
rthumb -16.7676 361.346
lclavicle 1.61413e-013 -1.98785e-014
lhumerus 69.7737 -36.4162 63.0046
lradius 63.057
lwrist -5.87645
lhand -32.5108 -16.8077
lfingers 7.12502
lthumb -5.74193 13.0945
rfemur 1.70093 22.5049 25.5256
rtibia 24.3761
rfoot -18.1618 31.1999
rtoes -36.4832
lfemur -49.8048 16.1749 -11.3207
ltibia 69.8443
lfoot -210.647 161.805
ltoes 6.86932
3475
root 17.467 20.1594 51.5078 178.368 -18.2352 -170.626
lowerback 33.7576 14.0047 -6.02762
upperback 4.91885 15.6173 6.6912
thorax -14.7441 6.74303 3.5253
lowerneck -12.0527 -12.3848 10.4922
upperneck -17.4411 -18.5726 6.48099
head -4.19235 -10.6672 0.580097
rclavicle 1.94014e-013 3.33958e-014
rhumerus 38.26 -32.3592 -66.0915
rradius 67.3605
rwrist -171.571
rhand -44.9025 30.062
rfingers 7.12502
rthumb -17.6899 360.847
lclavicle 1.94014e-013 3.33958e-014
lhumerus 70.6429 -36.7095 63.0951
lradius 62.2536
lwrist -6.02421
lhand -31.6709 -16.0644
lfingers 7.12502
lthumb -4.93098 13.8582
rfemur 0.449143 21.6506 25.1375
rtibia 25.7485
rfoot -14.3522 29.6309
rtoes -38.5652
lfemur -49.5171 16.0316 -11.6382
ltibia 69.0459
lfoot -210.421 162.368
ltoes 6.38548
3476
root 17.3822 20.2315 51.5189 178.941 -17.7915 -170.308
lowerback 33.3273 13.9869 -5.85525
upperback 4.75289 15.732 6.6141
thorax -14.7232 6.81705 3.34704
lowerneck -11.2704 -12.3681 11.1755
upperneck -19.8056 -18.6534 6.41429
head -4.76822 -10.939 0.561402
rclavicle 5.80451e-014 -7.95139e-015
rhumerus 37.586 -32.4699 -65.9018
rradius 67.5378
rwrist -171.667
rhand -45.8878 29.2439
rfingers 7.12502
rthumb -18.6377 360.117
lclavicle 5.80451e-014 -7.95139e-015
lhumerus 71.2341 -37.0624 63.5716
lradius 61.0227
lwrist -6.32148
lhand -30.977 -15.881
lfingers 7.12502
lthumb -4.26095 14.0561
rfemur -1.22159 20.8691 25.0042
rtibia 27.2301
rfoot -10.1074 27.2369
rtoes -37.1265
lfemur -49.597 15.9853 -11.6166
ltibia 68.3138
lfoot -209.877 162.523
ltoes 7.25962
3477
root 17.3027 20.2915 51.5351 179.398 -17.501 -170.143
lowerback 33.1839 13.9456 -5.69619
upperback 4.59791 15.7711 6.51746
thorax -14.7845 6.84212 3.15633
lowerneck -10.7484 -12.3379 10.6652
upperneck -20.7074 -18.5014 6.94021
head -5.02944 -10.9343 0.859498
rclavicle 4.53229e-014 -2.78299e-014
rhumerus 36.8666 -32.5263 -65.5295
rradius 67.6224
rwrist -172.074
rhand -46.406 28.6228
rfingers 7.12502
rthumb -19.1362 359.544
lclavicle 4.53229e-014 -2.78299e-014
lhumerus 71.6875 -37.382 64.1284
lradius 59.4608
lwrist -6.55799
lhand -30.5193 -16.0313
lfingers 7.12502
lthumb -3.81892 13.9143
rfemur -2.68663 19.9683 24.8347
rtibia 28.69
rfoot -5.83247 23.9805
rtoes -34.3879
lfemur -49.5842 15.6447 -11.6995
ltibia 67.6147
lfoot -209.641 163.112
ltoes 7.44534
3478
root 17.2244 20.342 51.5474 179.98 -17.0977 -170.089
lowerback 32.9041 13.9561 -5.6797
upperback 4.44906 15.836 6.38118
thorax -14.8074 6.89134 2.99722
lowerneck -10.8686 -12.502 10.1489
upperneck -20.843 -18.6858 7.31238
head -4.96982 -11.0282 1.02885
rclavicle -8.98507e-014 7.07673e-014
rhumerus 36.1802 -32.5506 -65.1663
rradius 67.7221
rwrist -172.587
rhand -43.4208 31.6599
rfingers 7.12502
rthumb -16.2635 362.322
lclavicle -8.98507e-014 7.07673e-014
lhumerus 72.094 -37.5648 64.1745
lradius 58.3617
lwrist -6.62818
lhand -29.8552 -15.8236
lfingers 7.12502
lthumb -3.17761 14.1324
rfemur -4.1787 19.7689 24.6969
rtibia 30.1641
rfoot -2.05929 19.8423
rtoes -30.8288
lfemur -49.7339 15.5199 -11.9501
ltibia 67.0138
lfoot -209.645 163.986
ltoes 6.774
3479
root 17.1476 20.3982 51.559 180.401 -16.6865 -169.8
lowerback 32.6953 13.9339 -5.39155
upperback 4.36313 15.9336 6.30956
thorax -14.7451 6.93278 2.76222
lowerneck -11.4664 -12.6582 9.92661
upperneck -20.5203 -18.9736 7.33333
head -4.75739 -11.1428 1.00053
rclavicle -5.24792e-014 7.95139e-015
rhumerus 35.679 -32.5724 -64.9028
rradius 67.7701
rwrist -172.904
rhand -43.3638 31.2879
rfingers 7.12502
rthumb -16.2087 361.946
lclavicle -5.24792e-014 7.95139e-015
lhumerus 72.3051 -37.6372 64.025
lradius 57.7382
lwrist -6.74276
lhand -28.871 -15.3532
lfingers 7.12502
lthumb -2.22712 14.6149
rfemur -5.58784 19.3262 24.8348
rtibia 31.658
rfoot 0.399401 15.4257
rtoes -27.3825
lfemur -49.7589 15.5397 -11.9295
ltibia 66.4224
lfoot -209.611 164.529
ltoes 6.79418
3480
root 17.0647 20.4603 51.5731 180.941 -16.4187 -169.709
lowerback 32.3428 13.8261 -5.16188
upperback 4.27265 15.9086 6.18919
thorax -14.6123 6.93377 2.58372
lowerneck -13.8374 -12.9304 10.478
upperneck -18.0855 -19.8313 5.94943
head -4.23751 -11.3888 0.345695
rclavicle -6.67916e-014 -3.4191e-014
rhumerus 35.1991 -32.519 -64.6132
rradius 67.7105
rwrist -173.167
rhand -43.2779 31.0966
rfingers 7.12502
rthumb -16.126 361.748
lclavicle -6.67916e-014 -3.4191e-014
lhumerus 73.384 -37.7208 63.9901
lradius 56.0764
lwrist -6.94726
lhand -27.7462 -14.6927
lfingers 7.12502
lthumb -1.14082 15.284
rfemur -7.14698 18.4448 24.6486
rtibia 33.2093
rfoot 1.55328 11.1429
rtoes -25.8984
lfemur -49.8347 15.1884 -12.1467
ltibia 65.8116
lfoot -209.61 165.255
ltoes 7.30835
3481
root 16.9853 20.5235 51.5878 181.55 -16.0458 -169.754
lowerback 31.9804 13.8026 -5.1684
upperback 4.1317 15.9239 6.03928
thorax -14.5842 6.96669 2.46019
lowerneck -11.1149 -12.447 11.186
upperneck -22.0364 -19.0852 6.12341
head -5.55724 -11.3626 0.645127
rclavicle 1.03368e-014 8.74653e-015
rhumerus 34.6176 -32.4092 -64.264
rradius 67.6695
rwrist -173.375
rhand -43.2338 31.1494
rfingers 7.12502
rthumb -16.0835 361.797
lclavicle 1.03368e-014 8.74653e-015
lhumerus 73.2452 -37.9632 64.0965
lradius 55.2994
lwrist -7.42462
lhand -26.6381 -13.9747
lfingers 7.12502
lthumb -0.0705141 16.005
rfemur -8.74184 17.5699 24.367
rtibia 34.7454
rfoot 2.29527 7.27143
rtoes -24.8622
lfemur -49.9086 14.8896 -12.4693
ltibia 65.1714
lfoot -209.725 165.987
ltoes 7.73167
